# xmcd
#
# Track frame offsets:
#	150
#	10258
#	20777
#	33673
#	46486
#	58905
#	71434
#	84361
#	98239
#	109729
#	119544
#	135205
#	147710
#	157370
#	169048
#	178721
#	192984
#	205166
#	217620
#	229054
#	246517
#	256534
#	269083
#	278787
#	292639
#	306037
#
# Disc length: 4207 seconds
#
# Revision: 1
# Processed by: cddbd v1.5.2PL0 Copyright (c) Steve Scherf et al.
# Submitted via: audiograbber 1.83.01
#
DISCID=80106d1a
DTITLE=Lefty Frizzell - Life`s Like Poetry CD8
DYEAR=1992
DGENRE=Country
TTITLE0=When The Rooster Leaves The Yard
TTITLE1=Anything You Can Spare
TTITLE2=Only Way To Fly (original vocal)
TTITLE3=Only Way To Fly (laughing version)
TTITLE4=A Prayer On Your Lips Is Like Freedom In...
TTITLE5=Little Old Winedrinker Me
TTITLE6=A Word Or Two To Mary
TTITLE7=Almost Persuaded
TTITLE8=Have You Ever Been Untrue (& JUNE STEARNS)
TTITLE9=If You've Got The Money... (& JUNE STEARNS)
TTITLE10=When The Grass Grows Green Again
TTITLE11=The Marriage Bit
TTITLE12=I'll Remember You
TTITLE13=Wasted Way Of Live
TTITLE14=Keep Them Flowers Watered While I'm Gone
TTITLE15=An Article From Life (without chorus
TTITLE16=Blind Street Singer
TTITLE17=Honky Tonk Hill (without overdub)
TTITLE18=My Baby Is A Tramp
TTITLE19=She Brought Love Sweet Love
TTITLE20=Watermelon Time In Georgia
TTITLE21=I Must Be Getting Over You 
TTITLE22=Out Of You
TTITLE23=It's Raining All Over The World
TTITLE24=There's Something Lonely In This House
TTITLE25=Three Cheers For The Good Guys
EXTD=
EXTT0=
EXTT1=
EXTT2=
EXTT3=
EXTT4=
EXTT5=
EXTT6=
EXTT7=
EXTT8=
EXTT9=
EXTT10=
EXTT11=
EXTT12=
EXTT13=
EXTT14=
EXTT15=
EXTT16=
EXTT17=
EXTT18=
EXTT19=
EXTT20=
EXTT21=
EXTT22=
EXTT23=
EXTT24=
EXTT25=
PLAYORDER=
